<?xml version="1.0" standalone="no"?>
<!DOCTYPE svg PUBLIC "-//W3C//DTD SVG 20010904//EN"
 "http://www.w3.org/TR/2001/REC-SVG-20010904/DTD/svg10.dtd">
<svg version="1.0" xmlns="http://www.w3.org/2000/svg"
 width="40.000000pt" height="40.000000pt" viewBox="58 55 278 326"
 preserveAspectRatio="xMidYMid meet">

<g transform="matrix(0.1, 0, 0, -0.1, -55.023529, 487.741821)"
fill="#000000" stroke="none">
<path d="M1508 4178 c208 -278 262 -704 166 -1291 -13 -83 -23 -151 -22 -152
2 -1 90 41 197 92 l194 95 -6 161 c-18 460 -113 798 -281 993 -59 69 -161 128
-259 149 l-28 6 39 -53z"/>
<path d="M1921 4074 c2 -5 25 -47 50 -94 126 -229 202 -533 225 -892 6 -101 8
-108 28 -108 28 0 247 38 253 44 9 9 -47 305 -81 426 -85 306 -218 513 -380
593 -60 30 -100 43 -95 31z"/>
<path d="M2350 3855 c0 -2 14 -28 31 -56 118 -201 186 -394 228 -653 10 -65
23 -121 27 -126 11 -9 157 -40 163 -34 8 8 -31 255 -54 343 -53 196 -114 315
-216 418 -54 54 -179 130 -179 108z"/>
<path d="M3320 3616 c0 -3 4 -15 9 -28 4 -13 11 -36 15 -51 l7 -28 -41 21
c-98 50 -199 35 -272 -40 -70 -72 -78 -122 -47 -277 32 -160 32 -260 -2 -333
-32 -68 -67 -110 -111 -134 l-34 -19 -50 36 c-90 65 -179 71 -281 21 -56 -27
-104 -83 -124 -142 l-11 -34 -27 25 c-98 92 -257 69 -318 -47 -9 -16 -12 -15
-32 17 -64 104 -235 78 -257 -39 -6 -35 -8 -36 -43 -29 -49 9 -121 42 -148 67
-28 26 -29 18 -2 -68 34 -112 83 -198 177 -314 39 -49 37 -48 -25 17 -90 92
-141 194 -189 373 -41 152 -68 200 -113 200 -55 0 -82 -68 -41 -105 20 -18 20
-17 20 8 0 32 17 44 36 25 8 -8 30 -73 49 -145 18 -72 44 -155 56 -184 64
-150 176 -289 297 -367 l63 -41 102 6 c95 5 119 2 354 -46 228 -47 258 -51
308 -42 100 19 175 69 200 135 21 56 15 96 -25 160 -35 55 -35 56 -12 56 70 0
152 -57 199 -137 13 -23 27 -43 31 -43 3 0 26 13 51 29 73 47 155 81 211 88
45 5 55 10 76 43 64 97 87 243 60 380 -21 102 -54 176 -175 384 -129 225 -150
309 -92 367 33 32 58 36 100 15 38 -20 51 -55 51 -138 l0 -70 27 7 c44 11 80
42 103 91 19 38 22 57 18 117 -5 78 -21 117 -64 161 -27 26 -84 62 -84 52z
m-242 -248 c-16 -68 5 -134 117 -368 117 -244 139 -314 133 -418 -2 -42 -11
-93 -19 -112 -15 -34 -15 -32 -11 55 6 130 -14 199 -118 415 -84 176 -140 331
-140 389 0 24 37 98 45 90 2 -2 -2 -25 -7 -51z m66 -559 c-15 -22 -29 -38 -31
-36 -2 2 9 31 24 63 22 48 28 55 31 36 2 -14 -8 -40 -24 -63z m-447 -34 c73
-31 113 -92 113 -173 0 -170 -231 -246 -343 -113 -126 150 45 363 230 286z
m497 -96 c-11 -17 -30 -39 -44 -48 -25 -16 -24 -15 4 24 46 63 49 66 54 61 2
-3 -4 -19 -14 -37z m-918 -28 c56 -34 79 -113 49 -171 -47 -92 -164 -104 -235
-24 -51 59 -36 152 33 194 41 26 112 26 153 1z m-324 -30 c27 -24 33 -36 33
-71 0 -35 -6 -47 -34 -72 -30 -27 -39 -30 -80 -25 -59 7 -91 41 -91 98 0 90
103 132 172 70z m1288 -46 c0 -8 -16 -32 -36 -53 -37 -38 -35 -30 12 43 19 29
24 31 24 10z"/>
<path d="M2653 2690 c14 -16 28 -39 32 -49 9 -30 -21 -80 -60 -98 -31 -15 -36
-15 -74 4 -46 23 -53 14 -17 -22 51 -50 149 -37 181 26 26 49 19 97 -19 135
-45 45 -79 48 -43 4z"/>
<path d="M2246 2594 c12 -46 7 -67 -21 -91 -29 -25 -42 -28 -79 -13 -36 13
-33 -6 4 -25 36 -19 53 -19 90 0 52 27 61 107 15 145 -15 12 -16 11 -9 -16z"/>
<path d="M1913 2569 c-12 -31 -52 -52 -80 -42 -16 6 -16 5 -4 -10 18 -23 73
-22 94 1 18 19 23 67 9 76 -4 3 -13 -8 -19 -25z"/>
<path d="M3246 2129 c-46 -11 -159 -70 -201 -105 -30 -24 -29 -24 35 4 36 16
89 35 119 42 70 17 191 8 260 -19 30 -11 57 -19 59 -17 2 3 -14 22 -37 45 -57
57 -134 74 -235 50z"/>
<path d="M1942 1934 c-58 -15 -117 -43 -109 -51 3 -3 47 1 97 8 58 8 145 10
238 6 l147 -5 -42 19 c-87 40 -232 50 -331 23z"/>
<path d="M1641 1768 c-61 -32 -86 -68 -86 -126 0 -64 29 -101 115 -146 82 -43
100 -76 59 -109 -30 -24 -77 -18 -129 17 l-36 24 -27 -44 c-15 -25 -27 -47
-27 -49 0 -3 24 -17 53 -32 66 -33 171 -38 228 -10 45 22 79 81 79 136 0 54
-40 99 -135 150 -57 30 -71 42 -73 64 -6 49 55 59 139 23 11 -5 20 3 32 29 23
48 22 49 -20 69 -62 29 -121 31 -172 4z"/>
<path d="M2066 1759 c-30 -23 -33 -45 -10 -77 18 -26 65 -30 88 -6 24 23 20
70 -6 88 -29 21 -40 20 -72 -5z"/>
<path d="M3380 1645 c0 -52 -1 -55 -25 -55 -22 0 -25 -4 -25 -40 0 -36 3 -40
25 -40 25 0 25 -1 25 -89 0 -81 3 -93 24 -118 21 -24 32 -28 75 -28 65 0 77
12 61 59 -6 20 -17 36 -23 35 -34 -4 -37 2 -37 71 l0 70 30 0 c28 0 30 2 30
40 0 38 -2 40 -30 40 -30 0 -30 1 -30 55 l0 55 -50 0 -50 0 0 -55z"/>
<path d="M2050 1435 l0 -155 50 0 50 0 0 155 0 155 -50 0 -50 0 0 -155z"/>
<path d="M2346 1503 c25 -49 63 -118 83 -155 34 -64 38 -68 71 -68 35 0 35 1
116 155 l81 155 -61 0 -62 0 -34 -80 c-19 -44 -37 -80 -40 -80 -4 0 -23 36
-43 80 l-36 80 -61 0 -62 0 48 -87z"/>
<path d="M2840 1483 c0 -161 28 -201 145 -211 70 -6 128 12 159 49 25 29 26
36 26 150 l0 119 -50 0 -50 0 0 -98 c0 -118 -8 -135 -65 -130 -53 4 -65 29
-65 141 l0 87 -50 0 -50 0 0 -107z"/>
</g>
</svg>
